<?xml version="1.0" encoding="UTF-8"?>
<svg width="18px" height="24px" viewBox="0 0 18 24" version="1.1" xmlns="http://www.w3.org/2000/svg" xmlns:xlink="http://www.w3.org/1999/xlink">
    <!-- Generator: Sketch 55.2 (78181) - https://sketchapp.com -->
    <title>detail_icon</title>
    <desc>Created with Sketch.</desc>
    <g id="List-View" stroke="none" stroke-width="1" fill="none" fill-rule="evenodd">
        <g id="View-User" transform="translate(-73.000000, -600.000000)">
            <g transform="translate(48.000000, 186.000000)" id="Contact-Details">
                <g transform="translate(0.000000, 390.000000)">
                    <g id="Title">
                        <g id="detail_icon" transform="translate(22.000000, 24.000000)">
                            <g id="Group">
                                <rect id="Rectangle" x="0" y="0" width="24" height="24"></rect>
                                <path d="M8.165,17.3731754 L15.344,17.3731754 C15.604,17.3731754 15.832,17.6011754 15.832,17.8601754 C15.832,18.1201754 15.604,18.3481754 15.344,18.3481754 L8.165,18.3481754 C7.905,18.3481754 7.678,18.1201754 7.678,17.8601754 C7.678,17.6011754 7.905,17.3731754 8.165,17.3731754 Z M16.7085,19.4200754 C16.9685,19.4200754 17.1955,19.6470754 17.1955,19.9070754 C17.1955,20.1670754 16.9685,20.3940754 16.7085,20.3940754 L6.8335,20.3940754 C6.5735,20.3940754 6.3455,20.1670754 6.3455,19.9070754 C6.3455,19.6470754 6.5735,19.4200754 6.8335,19.4200754 L16.7085,19.4200754 Z M11.771,10.9087754 C10.569,10.9087754 9.594,9.8367754 9.594,8.5367754 L9.594,7.9527754 C9.594,6.6537754 10.569,5.5807754 11.771,5.5807754 C12.973,5.5807754 13.947,6.6537754 13.947,7.9527754 L13.947,8.5367754 C13.947,9.8367754 12.973,10.9087754 11.771,10.9087754 Z M6.9307,15.0992754 C6.8657,15.0992754 6.7677,15.0342754 6.8007,15.0022754 C6.7357,14.9372754 6.7357,14.8712754 6.7357,14.7742754 L7.0287,12.8902754 L7.0287,12.8582754 C7.1257,12.4682754 7.3527,12.1762754 7.8077,11.9152754 L9.6267,10.9742754 C9.7247,10.9092754 9.8547,10.9412754 9.9517,11.0062754 C10.3087,11.3312754 10.9267,11.7532754 11.8037,11.7532754 C12.6477,11.7532754 13.2647,11.3632754 13.6557,11.0062754 C13.7527,10.9412754 13.8827,10.9092754 13.9797,10.9742754 L15.7987,11.9152754 C16.2537,12.1762754 16.4817,12.4682754 16.5787,12.8582754 L16.5787,12.8902754 L16.8707,14.7742754 C16.8707,14.8392754 16.8707,14.9372754 16.8057,15.0022754 C16.7417,15.0672754 16.6767,15.0992754 16.5787,15.0992754 L6.9307,15.0992754 Z M4.104,22.9281754 L19.437,22.9281754 L19.437,4.3141754 L4.104,4.3141754 L4.104,22.9281754 Z M17.034,3.1771754 L17.066,3.1771754 L17.066,1.2931754 L8.652,3.1771754 L17.034,3.1771754 Z M20.022,3.1771754 C20.314,3.1771754 20.574,3.4371754 20.574,3.7621754 L20.574,23.4481754 C20.574,23.7401754 20.347,24.0001754 20.022,24.0001754 L3.552,24.0001754 C3.26,24.0001754 3,23.7721754 3,23.4481754 L3,3.7291754 L3,3.6971754 L3,3.6321754 L3,3.5671754 C3.033,3.5351754 3.033,3.5351754 3.033,3.5021754 C3.033,3.4701754 3.065,3.4701754 3.065,3.4371754 L3.098,3.4051754 L3.13,3.3721754 L3.163,3.3401754 L3.195,3.3071754 L3.228,3.2751754 C3.26,3.2751754 3.26,3.2421754 3.292,3.2421754 C3.292,3.2421754 3.292,3.2101754 3.325,3.2101754 C3.357,3.1771754 3.357,3.1771754 3.39,3.1771754 L3.422,3.1771754 L17.488,0.0261753957 C17.651,-0.0388246043 17.846,0.0261753957 17.976,0.123175396 C18.138,0.253175396 18.203,0.416175396 18.203,0.579175396 L18.203,3.1771754 L20.022,3.1771754 Z" id="Combined-Shape" fill="#0A2C4E"></path>
                            </g>
                        </g>
                    </g>
                </g>
            </g>
        </g>
    </g>
</svg>