<?xml version="1.0" encoding="UTF-8"?>
<svg width="18px" height="18px" viewBox="0 0 18 18" version="1.1" xmlns="http://www.w3.org/2000/svg" xmlns:xlink="http://www.w3.org/1999/xlink">
    <!-- Generator: Sketch 55.2 (78181) - https://sketchapp.com -->
    <title>repair_icon</title>
    <desc>Created with Sketch.</desc>
    <g id="Symbols" stroke="none" stroke-width="1" fill="none" fill-rule="evenodd">
        <g id="paper-menu_checker" transform="translate(-26.000000, -120.000000)" fill="#2A2A2A" fill-rule="nonzero">
            <g id="paper-menu">
                <g id="paper-menu-button" transform="translate(26.000000, 119.000000)">
                    <g id="done-2" transform="translate(0.000000, 1.000000)">
                        <g id="repair_icon">
                            <path d="M17.7439768,14.6091897 C17.9268514,14.726752 18.0117562,14.9063583 17.9986937,15.1480141 C17.9856313,15.3896699 17.8746019,15.5954007 17.6656023,15.7652129 L15.804209,17.6266062 C15.6343968,17.7964184 15.4449938,17.8813232 15.2359942,17.8813232 C15.0269946,17.8813232 14.8310604,17.7964184 14.6481858,17.6266062 L7.22220611,10.2006266 C6.26864546,10.5663759 5.29550571,10.6512807 4.30275764,10.4553436 C3.27082215,10.246344 2.36952493,9.75650851 1.59883893,8.98582252 C1.06327747,8.45026106 0.658346832,7.83306839 0.384034866,7.134226 C0.1097229,6.43538362 -0.0176343163,5.72348943 0.00195939552,4.99852209 C0.0215531074,4.27355475 0.194628299,3.58451956 0.521190163,2.93139583 L4.12641512,6.45824633 L6.57561685,4.00904459 L3.04876635,0.482194095 C3.70189008,0.181757181 4.39419085,0.0217442674 5.12568942,0.00215055554 C5.857188,-0.0174431563 6.56255104,0.0968517817 7.24179972,0.345038798 C7.94717335,0.619350764 8.56763158,1.0242814 9.10319304,1.55984286 C9.87387904,2.33052886 10.3637145,3.22202937 10.5727141,4.23437115 C10.7817137,5.24671293 10.6968089,6.2296494 10.3179971,7.18321004 L17.7439768,14.6091897 Z" id=""></path>
                        </g>
                    </g>
                </g>
            </g>
        </g>
    </g>
</svg>