<?xml version="1.0" encoding="UTF-8"?>
<svg width="15px" height="15px" viewBox="0 0 15 15" version="1.1" xmlns="http://www.w3.org/2000/svg" xmlns:xlink="http://www.w3.org/1999/xlink">
    <!-- Generator: Sketch 55.2 (78181) - https://sketchapp.com -->
    <title></title>
    <desc>Created with Sketch.</desc>
    <g id="List-View" stroke="none" stroke-width="1" fill="none" fill-rule="evenodd">
        <g id="User-List-View_No-record-found" transform="translate(-1217.000000, -114.000000)" fill="#2D2D2D" fill-rule="nonzero">
            <g id="Page-Header" transform="translate(0.000000, 72.000000)">
                <g id="Search" transform="translate(843.000000, 34.000000)">
                    <g transform="translate(214.000000, 0.000000)" id="">
                        <path d="M165.44,17.18 C166.120003,17.18 166.746664,17.0100017 167.32,16.67 C167.893336,16.3299983 168.346665,15.8733362 168.68,15.3 C169.013335,14.7266638 169.18,14.1000034 169.18,13.42 C169.18,12.7399966 169.013335,12.1133362 168.68,11.54 C168.346665,10.9666638 167.893336,10.513335 167.32,10.18 C166.746664,9.846665 166.120003,9.68 165.44,9.68 C164.759997,9.68 164.133336,9.846665 163.56,10.18 C162.986664,10.513335 162.530002,10.9666638 162.19,11.54 C161.849998,12.1133362 161.68,12.7399966 161.68,13.42 C161.68,14.1000034 161.849998,14.7266638 162.19,15.3 C162.530002,15.8733362 162.986664,16.3299983 163.56,16.67 C164.133336,17.0100017 164.759997,17.18 165.44,17.18 Z M170.44,17.18 L174.58,21.32 L173.32,22.58 L169.18,18.42 L169.18,17.76 L168.94,17.54 C168.473331,17.9533354 167.93667,18.2699989 167.33,18.49 C166.72333,18.7100011 166.093337,18.82 165.44,18.82 C164.453328,18.82 163.543338,18.5800024 162.71,18.1 C161.876663,17.6199976 161.220002,16.9733374 160.74,16.16 C160.246664,15.3199958 160,14.4066716 160,13.42 C160,12.4333284 160.243331,11.5233375 160.73,10.69 C161.216669,9.8566625 161.876663,9.2000024 162.71,8.72 C163.543338,8.2399976 164.453328,8 165.44,8 C166.426672,8 167.339996,8.2466642 168.18,8.74 C168.993337,9.2200024 169.636664,9.8733292 170.11,10.7 C170.583336,11.5266708 170.82,12.4333284 170.82,13.42 C170.82,14.08667 170.710001,14.7233303 170.49,15.33 C170.269999,15.9366697 169.953335,16.473331 169.54,16.94 L169.76,17.18 L170.44,17.18 Z"></path>
                    </g>
                </g>
            </g>
        </g>
    </g>
</svg>