<svg xmlns="http://www.w3.org/2000/svg" width="130.328" height="91.498" viewBox="0 0 130.328 91.498">
  <g id="no_record_icon" data-name="no record icon" transform="translate(-1215.514 -917.385)">
    <path id="Path_6387" data-name="Path 6387" d="M1271.278,919.39c17.845-3.936,35.368-1.653,47.973,3.183,12.728,4.951,20.534,12.453,21.917,21.538,1.4,9.17-3.55,18.84-11.148,28.812a116.794,116.794,0,0,1-30.28,27.425c-23.47,15.2-51.809,10.15-66.817-15.6C1217.916,959.172,1234.535,926.619,1271.278,919.39Z" fill="#eaf4fe"/>
    <g id="Group_16274" data-name="Group 16274">
      <g id="Group_16256" data-name="Group 16256">
        <rect id="Rectangle_8320" data-name="Rectangle 8320" width="2.533" height="6.694" transform="translate(1325.647 961.606)" fill="none" stroke="#adcbfe" stroke-linecap="round" stroke-linejoin="round" stroke-width="0.656"/>
        <rect id="Rectangle_8321" data-name="Rectangle 8321" width="2.533" height="4.357" transform="translate(1321.489 963.943)" fill="none" stroke="#adcbfe" stroke-linecap="round" stroke-linejoin="round" stroke-width="0.656"/>
        <rect id="Rectangle_8322" data-name="Rectangle 8322" width="2.534" height="1.992" transform="translate(1317.329 966.308)" fill="none" stroke="#adcbfe" stroke-linecap="round" stroke-linejoin="round" stroke-width="0.656"/>
        <path id="Path_6388" data-name="Path 6388" d="M1326.211,959.661l1.837-1.84-1.844-1.557" fill="none" stroke="#adcbfe" stroke-linecap="round" stroke-linejoin="round" stroke-width="0.656"/>
        <path id="Path_6389" data-name="Path 6389" d="M1318.71,963.994c.681-3.523,5-6.174,8.683-6.174" fill="none" stroke="#adcbfe" stroke-linecap="round" stroke-linejoin="round" stroke-width="0.656"/>
      </g>
      <g id="Group_16257" data-name="Group 16257">
        <line id="Line_218" data-name="Line 218" x2="8.171" transform="translate(1264.175 981.934)" fill="none" stroke="#adcbfe" stroke-linecap="round" stroke-linejoin="round" stroke-width="0.656"/>
        <rect id="Rectangle_8323" data-name="Rectangle 8323" width="2.019" height="2.016" transform="translate(1259.307 980.927)" fill="none" stroke="#adcbfe" stroke-linecap="round" stroke-linejoin="round" stroke-width="0.656"/>
        <line id="Line_219" data-name="Line 219" x2="8.171" transform="translate(1264.175 987.384)" fill="none" stroke="#adcbfe" stroke-linecap="round" stroke-linejoin="round" stroke-width="0.656"/>
        <rect id="Rectangle_8324" data-name="Rectangle 8324" width="2.019" height="2.017" transform="translate(1259.307 986.373)" fill="none" stroke="#adcbfe" stroke-linecap="round" stroke-linejoin="round" stroke-width="0.656"/>
        <line id="Line_220" data-name="Line 220" x2="8.171" transform="translate(1264.175 992.83)" fill="none" stroke="#adcbfe" stroke-linecap="round" stroke-linejoin="round" stroke-width="0.656"/>
        <rect id="Rectangle_8325" data-name="Rectangle 8325" width="2.019" height="2.015" transform="translate(1259.307 991.822)" fill="none" stroke="#adcbfe" stroke-linecap="round" stroke-linejoin="round" stroke-width="0.656"/>
      </g>
      <g id="Group_16259" data-name="Group 16259">
        <g id="Group_16258" data-name="Group 16258">
          <path id="Path_6390" data-name="Path 6390" d="M1220.163,977.721a4.322,4.322,0,1,1,4.321-4.321,4.325,4.325,0,0,1-4.321,4.321Z" fill="none" stroke="#adcbfe" stroke-width="0.656"/>
        </g>
        <path id="Path_6391" data-name="Path 6391" d="M1222.379,971.63l-2.873,3.5-1.3-1.366" fill="none" stroke="#adcbfe" stroke-linecap="round" stroke-linejoin="round" stroke-width="0.656"/>
      </g>
      <g id="Group_16262" data-name="Group 16262">
        <g id="Group_16260" data-name="Group 16260">
          <path id="Path_6392" data-name="Path 6392" d="M1291.153,968.1" fill="none"/>
        </g>
        <g id="Group_16261" data-name="Group 16261">
          <path id="Path_6393" data-name="Path 6393" d="M1293.181,936.112a24.024,24.024,0,1,0,7.06,17.007A23.909,23.909,0,0,0,1293.181,936.112Zm-3.144,30.807a19.519,19.519,0,1,1,5.712-13.8A19.445,19.445,0,0,1,1290.037,966.919Z" fill="#0058a5"/>
          <path id="Path_6394" data-name="Path 6394" d="M1262.366,939.37a19.491,19.491,0,1,0,27.626,27.5h0a19.491,19.491,0,1,0-27.626-27.5Z" fill="#fff" opacity="0.2"/>
          <path id="Path_6395" data-name="Path 6395" d="M1267.3,968.535a18.855,18.855,0,0,1,13.287-32.177l.028,0a18.83,18.83,0,0,1,5.678.868,18.713,18.713,0,0,0-10.13-2.953h-.024A18.856,18.856,0,0,0,1270.5,971.1,19.007,19.007,0,0,1,1267.3,968.535Z" fill="#fff" opacity="0.2"/>
          <path id="Path_6396" data-name="Path 6396" d="M1276.175,973.806a20.683,20.683,0,0,1-.01-41.365h0l.005-2.017a.233.233,0,0,1-.046,0,22.7,22.7,0,0,0,.051,45.4l.005-2.018Z" fill="#0450cf"/>
        </g>
        <path id="Path_6397" data-name="Path 6397" d="M1298.263,970.911q-1.9-1.965-3.826-3.933a3.006,3.006,0,0,0-2.145-.9q-.678.828-1.448,1.6a21.66,21.66,0,0,1-1.663,1.505,3.031,3.031,0,0,0,.9,2.143q1.915,1.973,3.846,3.953c1.237,1.241,2.7.818,3.912-.432l.007-.006C1299.076,973.6,1299.5,972.132,1298.263,970.911Z" fill="#0058a5"/>
        <rect id="Rectangle_8326" data-name="Rectangle 8326" width="9.828" height="30.67" transform="translate(1292.419 976.315) rotate(-45)" fill="#7eb3ff"/>
        <rect id="Rectangle_8327" data-name="Rectangle 8327" width="4.06" height="30.67" transform="matrix(0.707, -0.707, 0.707, 0.707, 1295.936, 972.8)" fill="#0058a5"/>
        <rect id="Rectangle_8328" data-name="Rectangle 8328" width="9.828" height="2.359" transform="matrix(0.707, -0.707, 0.707, 0.707, 1292.419, 976.317)" fill="#e1ecff"/>
        <rect id="Rectangle_8329" data-name="Rectangle 8329" width="4.34" height="1.622" transform="translate(1296.031 973.465) rotate(-44.959)" fill="#eaf4fe"/>
        <path id="Path_6398" data-name="Path 6398" d="M1322.721,992.722a6.95,6.95,0,0,1-6.95,6.949L1314.106,998q3.477-3.474,6.949-6.949Q1321.886,991.89,1322.721,992.722Z" fill="#e1ecff"/>
        <rect id="Rectangle_8330" data-name="Rectangle 8330" width="4.341" height="2.027" transform="translate(1317.546 994.98) rotate(-44.98)" fill="#eaf4fe"/>
      </g>
      <path id="Path_6399" data-name="Path 6399" d="M1224.75,968.639l7.626-9.36,18.6,22.583,24.973-29.59,28.77,11.16,12.851-19.169,16.117,12.706,10.1-19.654" fill="none" stroke="#adcbfe" stroke-miterlimit="10" stroke-width="0.541" stroke-dasharray="1.442 1.442"/>
      <path id="Path_6400" data-name="Path 6400" d="M1256.025,981.862a5.047,5.047,0,1,1-5.047-5.046A5.044,5.044,0,0,1,1256.025,981.862Z" fill="#f8faff"/>
      <path id="Path_6401" data-name="Path 6401" d="M1256.025,981.862a5.047,5.047,0,1,1-5.047-5.046A5.044,5.044,0,0,1,1256.025,981.862Z" fill="none" stroke="#adcbfe" stroke-miterlimit="10" stroke-width="0.541" stroke-dasharray="1.442 1.442"/>
      <path id="Path_6402" data-name="Path 6402" d="M1253.485,981.862a2.506,2.506,0,1,1-2.507-2.507A2.506,2.506,0,0,1,1253.485,981.862Z" fill="#9ac7f7"/>
      <path id="Path_6403" data-name="Path 6403" d="M1234.423,959.278a2.048,2.048,0,1,1-2.049-2.045A2.049,2.049,0,0,1,1234.423,959.278Z" fill="#adcbfe"/>
      <path id="Path_6404" data-name="Path 6404" d="M1278,952.272a2.048,2.048,0,1,1-2.047-2.049A2.046,2.046,0,0,1,1278,952.272Z" fill="#adcbfe"/>
      <path id="Path_6405" data-name="Path 6405" d="M1306.77,963.435a2.051,2.051,0,1,1-2.051-2.05A2.05,2.05,0,0,1,1306.77,963.435Z" fill="#adcbfe"/>
      <path id="Path_6406" data-name="Path 6406" d="M1319.621,944.263a2.049,2.049,0,1,1-2.05-2.049A2.048,2.048,0,0,1,1319.621,944.263Z" fill="#adcbfe"/>
      <path id="Path_6407" data-name="Path 6407" d="M1337.12,956.973a3.432,3.432,0,1,1-3.437-3.432A3.431,3.431,0,0,1,1337.12,956.973Z" fill="#c5e1f9"/>
      <path id="Path_6408" data-name="Path 6408" d="M1337.12,956.973a3.432,3.432,0,1,1-3.437-3.432A3.431,3.431,0,0,1,1337.12,956.973Z" fill="none" stroke="#adcbfe" stroke-miterlimit="10" stroke-width="0.541" stroke-dasharray="1.442 1.442"/>
      <path id="Path_6409" data-name="Path 6409" d="M1345.842,937.317a2.049,2.049,0,1,1-2.051-2.049A2.046,2.046,0,0,1,1345.842,937.317Z" fill="#adcbfe"/>
      <g id="Group_16271" data-name="Group 16271">
        <g id="Group_16267" data-name="Group 16267">
          <g id="Group_16264" data-name="Group 16264">
            <g id="Group_16263" data-name="Group 16263">
              <path id="Path_6410" data-name="Path 6410" d="M1275.908,952.437l-11.918-8.66a14.284,14.284,0,0,1,11.918-6.069Z" fill="#ffab01"/>
            </g>
          </g>
          <g id="Group_16266" data-name="Group 16266">
            <g id="Group_16265" data-name="Group 16265">
              <path id="Path_6411" data-name="Path 6411" d="M1275.908,952.437V937.708a14.73,14.73,0,1,1-14.73,14.729,14.117,14.117,0,0,1,2.812-8.66Z" fill="#fec12f"/>
            </g>
          </g>
        </g>
        <g id="Group_16270" data-name="Group 16270">
          <g id="Group_16269" data-name="Group 16269">
            <g id="Group_16268" data-name="Group 16268">
              <path id="Path_6412" data-name="Path 6412" d="M1275.908,952.437h14.732a14.728,14.728,0,0,0-14.732-14.729h0Z" fill="#00bdcd"/>
            </g>
          </g>
        </g>
      </g>
      <g id="Group_16272" data-name="Group 16272">
        <path id="Path_6413" data-name="Path 6413" d="M1326.893,943.2a8.915,8.915,0,1,1-10.247-7.351A8.919,8.919,0,0,1,1326.893,943.2Z" fill="#f8faff"/>
        <path id="Path_6414" data-name="Path 6414" d="M1326.893,943.2a8.915,8.915,0,1,1-10.247-7.351A8.919,8.919,0,0,1,1326.893,943.2Z" fill="none" stroke="#adcbfe" stroke-miterlimit="10" stroke-width="0.541" stroke-dasharray="1.474 1.474"/>
      </g>
      <path id="Path_6415" data-name="Path 6415" d="M1324.7,943.56a6.7,6.7,0,1,1-7.695-5.52A6.7,6.7,0,0,1,1324.7,943.56Z" fill="#7eb3ff"/>
      <g id="Group_16273" data-name="Group 16273">
        <path id="Path_6416" data-name="Path 6416" d="M1317.4,949.142V948.1a4.606,4.606,0,0,1-1.87-.473l.332-1.286a3.853,3.853,0,0,0,1.821.485c.64,0,1.067-.254,1.067-.682s-.351-.682-1.175-.956c-1.177-.4-1.98-.945-1.98-2.011a2.017,2.017,0,0,1,1.859-1.957v-1.044h1.076v.967a3.975,3.975,0,0,1,1.6.362l-.329,1.242a3.429,3.429,0,0,0-1.583-.385c-.713,0-.945.32-.945.626,0,.352.384.594,1.329.935,1.308.461,1.826,1.066,1.826,2.066a2.079,2.079,0,0,1-1.945,2.024v1.131Z" fill="#f8faff"/>
      </g>
      <path id="Path_6417" data-name="Path 6417" d="M1335.736,956.972a2.048,2.048,0,1,1-2.051-2.05A2.045,2.045,0,0,1,1335.736,956.972Z" fill="#adcbfe"/>
    </g>
  </g>
</svg>
