<?xml version="1.0" encoding="UTF-8"?>
<svg width="22px" height="24px" viewBox="0 0 22 24" version="1.1" xmlns="http://www.w3.org/2000/svg" xmlns:xlink="http://www.w3.org/1999/xlink">
    <!-- Generator: Sketch 55.2 (78181) - https://sketchapp.com -->
    <title>user_icon</title>
    <desc>Created with Sketch.</desc>
    <g id="List-View" stroke="none" stroke-width="1" fill="none" fill-rule="evenodd">
        <g id="View-User" transform="translate(-71.000000, -210.000000)">
            <g transform="translate(48.000000, 186.000000)" id="Personal-Information">
                <g>
                    <g id="Title">
                        <g id="user_icon" transform="translate(22.000000, 24.000000)">
                            <g id="Group">
                                <rect id="Rectangle" x="0" y="0" width="24" height="24"></rect>
                                <g id="user_icon" transform="translate(1.000000, 0.000000)" fill="#0A2C4E">
                                    <path d="M9.6802,15.7203 C10.1602,15.9203 10.6802,15.9203 11.1602,15.7203 L12.4002,15.2003 L11.6802,18.8003 L10.4002,21.2003 L9.1202,18.8003 L8.4002,15.2003 L9.6802,15.7203 Z M20,19.5201 L21.6,24.0001 L5.43565193e-13,24.0001 L1.24,19.9201 C1.48,19.2001 1.96,18.6401 2.64,18.3201 L7.6,16.0001 L8,19.2001 L10.4,22.4001 L12.8,19.2001 L13.2,16.0001 L18.44,17.9601 C19.16,18.2401 19.76,18.8001 20,19.5201 Z M15.6001,8.4 C15.6001,9.32 15.2001,10 15.2001,10 L15.2001,8.4 L15.2001,7.2 C15.2001,7.2 15.6001,7.48 15.6001,8.4 Z M5.6001,8.4 L5.6001,10 C5.6001,10 5.2001,9.32 5.2001,8.4 C5.2001,7.48 5.6001,7.2 5.6001,7.2 L5.6001,5.2 L6.0001,4.4 L6.4001,4 L6.8001,3.2 L7.6001,2.4 L8.4001,2 L9.6001,1.6 L10.0001,0.8 L10.4001,2.04281037e-14 L11.2001,0.4 L12.4001,1.6 L13.6001,2.8 L14.8001,4 L15.2001,6 C15.2001,6 15.1121,6.29 15.0161,6.649 C15.1331,7.179 15.2001,7.759 15.2001,8.4 C15.2001,12.16 12.0801,14.8 10.4001,14.8 C8.7201,14.8 5.6001,12.16 5.6001,8.4 C5.6001,8.129 5.6141,7.87 5.6361,7.618 L5.6001,7.6 L5.6001,8.4 Z" id="Combined-Shape"></path>
                                </g>
                            </g>
                        </g>
                    </g>
                </g>
            </g>
        </g>
    </g>
</svg>