<?xml version="1.0" encoding="UTF-8"?>
<svg width="18px" height="19px" viewBox="0 0 18 19" version="1.1" xmlns="http://www.w3.org/2000/svg" xmlns:xlink="http://www.w3.org/1999/xlink">
    <!-- Generator: Sketch 55.2 (78181) - https://sketchapp.com -->
    <title>reset_icon</title>
    <desc>Created with Sketch.</desc>
    <g id="Symbols" stroke="none" stroke-width="1" fill="none" fill-rule="evenodd">
        <g id="paper-menu" transform="translate(-25.000000, -115.000000)" fill="#2A2A2A" fill-rule="nonzero">
            <g id="paper-menu-button-copy">
                <g transform="translate(25.000000, 114.000000)">
                    <g id="done-2" transform="translate(0.000000, 1.000000)">
                        <g id="reset_icon">
                            <path d="M15.3513514,2.64864865 L18,7.10542736e-15 L18,7.91891892 L10.0810811,7.91891892 L13.7297297,4.27027027 C13.0990959,3.63963649 12.373878,3.14865041 11.5540541,2.7972973 C10.7342301,2.44594419 9.87387838,2.27027027 8.97297297,2.27027027 C7.74774162,2.27027027 6.6171223,2.57206905 5.58108108,3.17567568 C4.54503986,3.7792823 3.72522824,4.59909392 3.12162162,5.63513514 C2.518015,6.67117635 2.21621622,7.80179568 2.21621622,9.02702703 C2.21621622,10.2522584 2.518015,11.3828777 3.12162162,12.4189189 C3.72522824,13.4549601 4.54503986,14.2747718 5.58108108,14.8783784 C6.6171223,15.481985 7.74774162,15.7837838 8.97297297,15.7837838 C10.4324397,15.7837838 11.7477419,15.3693735 12.9189189,14.5405405 C14.0900959,13.7117076 14.9008986,12.6306373 15.3513514,11.2972973 L17.6756757,11.2972973 C17.3513497,12.5946011 16.76577,13.7522472 15.9189189,14.7702703 C15.0720678,15.7882934 14.0630689,16.5855827 12.8918919,17.1621622 C11.6666605,17.7567597 10.3603673,18.0540541 8.97297297,18.0540541 C7.35134324,18.0540541 5.83784486,17.6396438 4.43243243,16.8108108 C3.08107432,16.0180141 2.00901297,14.9369438 1.21621622,13.5675676 C0.405401351,12.1801732 0,10.6666749 0,9.02702703 C0,7.38737919 0.405401351,5.87388081 1.21621622,4.48648649 C2.00901297,3.11711027 3.08107432,2.03604 4.43243243,1.24324324 C5.83784486,0.41441027 7.35134324,7.10542736e-15 8.97297297,7.10542736e-15 C10.1982043,7.10542736e-15 11.3603549,0.234231892 12.4594595,0.702702703 C13.5585641,1.17117351 14.5225184,1.81981568 15.3513514,2.64864865 Z" id=""></path>
                        </g>
                    </g>
                </g>
            </g>
        </g>
    </g>
</svg>