<?xml version="1.0" encoding="UTF-8"?>
<svg width="18px" height="18px" viewBox="0 0 18 18" version="1.1" xmlns="http://www.w3.org/2000/svg" xmlns:xlink="http://www.w3.org/1999/xlink">
    <!-- Generator: Sketch 55.2 (78181) - https://sketchapp.com -->
    <title>block_icon</title>
    <desc>Created with Sketch.</desc>
    <g id="Symbols" stroke="none" stroke-width="1" fill="none" fill-rule="evenodd">
        <g id="paper-menu" transform="translate(-26.000000, -70.000000)" fill="#0A2C4E" fill-rule="nonzero">
            <g id="paper-menu-button">
                <g transform="translate(26.000000, 69.000000)">
                    <g id="done-2" transform="translate(0.000000, 1.000000)">
                        <g id="block_icon">
                            <path d="M9,16.2259615 C10.2980834,16.2259615 11.5096098,15.8942341 12.6346154,15.2307692 C13.7307747,14.5961507 14.5961507,13.7307747 15.2307692,12.6346154 C15.8942341,11.5096098 16.2259615,10.2980834 16.2259615,9 C16.2259615,8.1778805 16.0961551,7.38822494 15.8365385,6.63100962 C15.5769218,5.87379429 15.2019255,5.18509925 14.7115385,4.56490385 L4.56490385,14.7115385 C5.18509925,15.2019255 5.87379429,15.5769218 6.63100962,15.8365385 C7.38822494,16.0961551 8.1778805,16.2259615 9,16.2259615 Z M1.77403846,9 C1.77403846,9.8221195 1.90384486,10.6117751 2.16346154,11.3689904 C2.42307822,12.1262057 2.79807447,12.8149007 3.28846154,13.4350962 L13.4350962,3.28846154 C12.8149007,2.79807447 12.1262057,2.42307822 11.3689904,2.16346154 C10.6117751,1.90384486 9.8221195,1.77403846 9,1.77403846 C7.70191659,1.77403846 6.49039024,2.10576591 5.36538462,2.76923077 C4.26922529,3.40384933 3.40384933,4.26922529 2.76923077,5.36538462 C2.10576591,6.49039024 1.77403846,7.70191659 1.77403846,9 Z M9,-1.0658141e-14 C10.644239,-1.0658141e-14 12.1658584,0.411053582 13.5649038,1.23317308 C14.9206799,2.01202312 15.9879769,3.07932014 16.7668269,4.43509615 C17.5889464,5.83414161 18,7.35576101 18,9 C18,10.644239 17.5889464,12.1658584 16.7668269,13.5649038 C15.9879769,14.9206799 14.9206799,15.9879769 13.5649038,16.7668269 C12.1658584,17.5889464 10.644239,18 9,18 C7.35576101,18 5.83414161,17.5889464 4.43509615,16.7668269 C3.07932014,15.9735537 2.01202313,14.8990452 1.23317308,13.5432692 C0.411053582,12.1442238 0,10.6298158 0,9 C0,7.37018416 0.411053582,5.85577623 1.23317308,4.45673077 C2.02644627,3.10095476 3.10095476,2.02644627 4.45673077,1.23317308 C5.85577623,0.411053582 7.37018416,-1.0658141e-14 9,-1.0658141e-14 Z" id=""></path>
                        </g>
                    </g>
                </g>
            </g>
        </g>
    </g>
</svg>