<?xml version="1.0" encoding="UTF-8"?>
<svg width="23px" height="24px" viewBox="0 0 23 24" version="1.1" xmlns="http://www.w3.org/2000/svg" xmlns:xlink="http://www.w3.org/1999/xlink">
    <!-- Generator: Sketch 55.2 (78181) - https://sketchapp.com -->
    <title>users_icon</title>
    <desc>Created with Sketch.</desc>
    <g id="Symbols" stroke="none" stroke-width="1" fill="none" fill-rule="evenodd">
        <g id="Menus_user" transform="translate(-1.000000, 0.000000)">
            <g id="Menus">
                <g id="User">
                    <g id="users_icon">
                        <g>
                            <rect id="Rectangle" x="0" y="0" width="24" height="24"></rect>
                            <path d="M15.078891,1.926 C14.407891,1.225 13.588891,0.715 12.685891,0.406 C13.263891,0.143 13.903891,1.77635684e-15 14.579891,1.77635684e-15 C17.108891,1.77635684e-15 19.157891,1.952 19.157891,4.965 C19.157891,7.366 17.651891,9.712 15.923891,10.568 C16.525891,9.399 16.888891,8.07 16.888891,6.733 C16.888891,4.851 16.245891,3.144 15.078891,1.926 Z M22.769291,16.0422 C23.046291,16.5922 22.216291,14.9452 22.769291,16.0422 C23.046291,16.5922 23.625291,18.1962 23.266291,18.8862 C22.981291,19.4322 22.443291,19.7782 21.336291,20.0512 C21.160291,19.3382 20.894291,18.6782 20.716291,18.3272 C20.078291,17.0592 19.571291,16.3392 18.634291,15.3652 C18.492291,15.2182 18.337291,15.0852 18.175291,14.9602 C17.939291,14.7802 17.689291,14.6182 17.430291,14.4722 C17.147291,14.3122 16.853291,14.1702 16.552291,14.0472 C16.397291,13.9842 15.506291,13.7482 15.385291,13.5542 C15.284291,13.3942 15.545291,13.1692 15.752291,13.0412 C15.973291,12.9032 16.582291,12.6042 17.223291,12.4042 C18.483291,12.0132 20.412291,12.9372 21.061291,13.6122 C21.812291,14.3932 22.216291,14.9452 22.769291,16.0422 Z M15.665791,6.7326 C15.665791,10.0366 13.066791,13.2526 10.646791,13.2526 C8.14779099,13.2526 5.62879099,10.0366 5.62879099,6.7326 C5.62879099,3.4286 7.87579099,1.2886 10.646791,1.2886 C13.418791,1.2886 15.665791,3.4286 15.665791,6.7326 Z M19.625291,18.8772 C19.929291,19.4802 20.563291,21.2392 20.170291,21.9952 C19.672291,22.9522 18.461291,23.3482 15.132291,23.7552 C13.137291,24.0002 10.647291,24.0002 10.647291,24.0002 C10.647291,24.0002 8.15629099,24.0002 6.16329099,23.7552 C2.83329099,23.3492 1.62229099,22.9522 1.12529099,21.9952 C0.731290992,21.2392 1.36529099,19.4802 1.66929099,18.8772 C2.27529099,17.6752 2.71829099,17.0692 3.54229099,16.2122 C4.25329099,15.4732 6.37829099,14.4302 7.75029099,14.8892 C8.84329099,15.1282 8.89529099,15.7582 10.647291,15.7582 C12.399291,15.7582 12.451291,15.1282 13.545291,14.8892 C14.917291,14.4302 17.041291,15.4732 17.753291,16.2122 C18.577291,17.0692 19.019291,17.6752 19.625291,18.8772 Z" id="Combined-Shape" fill="#FFFFFF" fill-rule="evenodd"></path>
                        </g>
                    </g>
                </g>
            </g>
        </g>
    </g>
</svg>